<svg width="1120" height="565" viewBox="0 0 1120 565" fill="none" xmlns="http://www.w3.org/2000/svg">
<path d="M1019.97 183.416C1019.97 189.059 1015.4 193.633 1009.77 193.633C1004.13 193.633 999.564 189.059 999.564 183.416C999.564 177.774 1004.13 173.2 1009.77 173.2C1015.38 173.2 1019.97 177.774 1019.97 183.416Z" stroke="#04D361" stroke-width="3" stroke-miterlimit="10" stroke-linecap="round" stroke-linejoin="round"/>
<path d="M1017.14 190.465L1024.34 197.69" stroke="#04D361" stroke-width="3" stroke-miterlimit="10" stroke-linecap="round" stroke-linejoin="round"/>
<path d="M276.043 153.336L286.777 164.085" stroke="#04D361" stroke-width="3" stroke-miterlimit="10" stroke-linecap="round" stroke-linejoin="round"/>
<path d="M286.777 153.336L276.043 164.085" stroke="#04D361" stroke-width="3" stroke-miterlimit="10" stroke-linecap="round" stroke-linejoin="round"/>
<path d="M891.351 406.815L902.085 417.564" stroke="#04D361" stroke-width="3" stroke-miterlimit="10" stroke-linecap="round" stroke-linejoin="round"/>
<path d="M902.085 406.815L891.351 417.564" stroke="#04D361" stroke-width="3" stroke-miterlimit="10" stroke-linecap="round" stroke-linejoin="round"/>
<path d="M304.853 501.314V516.515" stroke="#04D361" stroke-width="3" stroke-miterlimit="10" stroke-linecap="round" stroke-linejoin="round"/>
<path d="M312.462 508.913H297.264" stroke="#04D361" stroke-width="3" stroke-miterlimit="10" stroke-linecap="round" stroke-linejoin="round"/>
<path d="M99.8944 250.428C99.8944 255.519 95.7706 259.666 90.6691 259.666C85.5854 259.666 81.4438 255.537 81.4438 250.428C81.4438 245.338 85.5677 241.19 90.6691 241.19C95.7706 241.208 99.8944 245.338 99.8944 250.428Z" stroke="#04D361" stroke-width="3" stroke-miterlimit="10" stroke-linecap="round" stroke-linejoin="round"/>
<path d="M642.824 11.2379C642.824 16.3285 638.7 20.4758 633.598 20.4758C628.515 20.4758 624.373 16.3463 624.373 11.2379C624.373 6.14727 628.497 2 633.598 2C638.7 2.0178 642.824 6.14727 642.824 11.2379Z" stroke="#04D361" stroke-width="3" stroke-miterlimit="10" stroke-linecap="round" stroke-linejoin="round"/>
<path d="M778.167 553.767C778.167 558.857 774.043 563.004 768.942 563.004C763.858 563.004 759.716 558.875 759.716 553.767C759.716 548.676 763.84 544.529 768.942 544.529C774.043 544.546 778.167 548.676 778.167 553.767Z" stroke="#04D361" stroke-width="3" stroke-miterlimit="10" stroke-linecap="round" stroke-linejoin="round"/>
<path d="M3.34163 377.873C5.18689 377.873 6.68277 376.375 6.68277 374.527C6.68277 372.68 5.18689 371.182 3.34163 371.182C1.49637 371.182 0.000488281 372.68 0.000488281 374.527C0.000488281 376.375 1.49637 377.873 3.34163 377.873Z" fill="#9871F5"/>
<path d="M26.6795 377.873C28.5248 377.873 30.0207 376.375 30.0207 374.527C30.0207 372.68 28.5248 371.182 26.6795 371.182C24.8343 371.182 23.3384 372.68 23.3384 374.527C23.3384 376.375 24.8343 377.873 26.6795 377.873Z" fill="#9871F5"/>
<path d="M50.0008 377.873C51.8461 377.873 53.3419 376.375 53.3419 374.527C53.3419 372.68 51.8461 371.182 50.0008 371.182C48.1555 371.182 46.6597 372.68 46.6597 374.527C46.6597 376.375 48.1555 377.873 50.0008 377.873Z" fill="#9871F5"/>
<path d="M73.3402 377.873C75.1854 377.873 76.6813 376.375 76.6813 374.527C76.6813 372.68 75.1854 371.182 73.3402 371.182C71.4949 371.182 69.999 372.68 69.999 374.527C69.999 376.375 71.4949 377.873 73.3402 377.873Z" fill="#9871F5"/>
<path d="M96.6605 377.873C98.5057 377.873 100.002 376.375 100.002 374.527C100.002 372.68 98.5057 371.182 96.6605 371.182C94.8152 371.182 93.3193 372.68 93.3193 374.527C93.3193 376.375 94.8152 377.873 96.6605 377.873Z" fill="#9871F5"/>
<path d="M119.999 377.873C121.845 377.873 123.34 376.375 123.34 374.527C123.34 372.68 121.845 371.182 119.999 371.182C118.154 371.182 116.658 372.68 116.658 374.527C116.658 376.375 118.154 377.873 119.999 377.873Z" fill="#9871F5"/>
<path d="M3.34114 401.226C5.1864 401.226 6.68228 399.728 6.68228 397.88C6.68228 396.032 5.1864 394.534 3.34114 394.534C1.49588 394.534 0 396.032 0 397.88C0 399.728 1.49588 401.226 3.34114 401.226Z" fill="#9871F5"/>
<path d="M26.6795 401.226C28.5248 401.226 30.0207 399.728 30.0207 397.88C30.0207 396.032 28.5248 394.534 26.6795 394.534C24.8343 394.534 23.3384 396.032 23.3384 397.88C23.3384 399.728 24.8343 401.226 26.6795 401.226Z" fill="#9871F5"/>
<path d="M50.0013 401.226C51.8466 401.226 53.3424 399.728 53.3424 397.88C53.3424 396.032 51.8466 394.534 50.0013 394.534C48.156 394.534 46.6602 396.032 46.6602 397.88C46.6602 399.728 48.156 401.226 50.0013 401.226Z" fill="#9871F5"/>
<path d="M73.3402 401.226C75.1854 401.226 76.6813 399.728 76.6813 397.88C76.6813 396.032 75.1854 394.534 73.3402 394.534C71.4949 394.534 69.999 396.032 69.999 397.88C69.999 399.728 71.4949 401.226 73.3402 401.226Z" fill="#9871F5"/>
<path d="M96.6605 401.226C98.5057 401.226 100.002 399.728 100.002 397.88C100.002 396.032 98.5057 394.534 96.6605 394.534C94.8152 394.534 93.3193 396.032 93.3193 397.88C93.3193 399.728 94.8152 401.226 96.6605 401.226Z" fill="#9871F5"/>
<path d="M119.999 401.226C121.845 401.226 123.34 399.728 123.34 397.88C123.34 396.032 121.845 394.534 119.999 394.534C118.154 394.534 116.658 396.032 116.658 397.88C116.658 399.728 118.154 401.226 119.999 401.226Z" fill="#9871F5"/>
<path d="M3.34114 424.597C5.1864 424.597 6.68228 423.099 6.68228 421.251C6.68228 419.403 5.1864 417.905 3.34114 417.905C1.49588 417.905 0 419.403 0 421.251C0 423.099 1.49588 424.597 3.34114 424.597Z" fill="#9871F5"/>
<path d="M26.6795 424.597C28.5248 424.597 30.0207 423.099 30.0207 421.251C30.0207 419.403 28.5248 417.905 26.6795 417.905C24.8343 417.905 23.3384 419.403 23.3384 421.251C23.3384 423.099 24.8343 424.597 26.6795 424.597Z" fill="#9871F5"/>
<path d="M50.0013 424.597C51.8466 424.597 53.3424 423.099 53.3424 421.251C53.3424 419.403 51.8466 417.905 50.0013 417.905C48.156 417.905 46.6602 419.403 46.6602 421.251C46.6602 423.099 48.156 424.597 50.0013 424.597Z" fill="#9871F5"/>
<path d="M73.3402 424.597C75.1854 424.597 76.6813 423.099 76.6813 421.251C76.6813 419.403 75.1854 417.905 73.3402 417.905C71.4949 417.905 69.999 419.403 69.999 421.251C69.999 423.099 71.4949 424.597 73.3402 424.597Z" fill="#9871F5"/>
<path d="M96.6605 424.597C98.5057 424.597 100.002 423.099 100.002 421.251C100.002 419.403 98.5057 417.905 96.6605 417.905C94.8152 417.905 93.3193 419.403 93.3193 421.251C93.3193 423.099 94.8152 424.597 96.6605 424.597Z" fill="#9871F5"/>
<path d="M119.999 424.597C121.845 424.597 123.34 423.099 123.34 421.251C123.34 419.403 121.845 417.905 119.999 417.905C118.154 417.905 116.658 419.403 116.658 421.251C116.658 423.099 118.154 424.597 119.999 424.597Z" fill="#9871F5"/>
<path d="M3.34114 447.95C5.1864 447.95 6.68228 446.452 6.68228 444.604C6.68228 442.756 5.1864 441.258 3.34114 441.258C1.49588 441.258 0 442.756 0 444.604C0 446.452 1.49588 447.95 3.34114 447.95Z" fill="#9871F5"/>
<path d="M26.6795 447.95C28.5248 447.95 30.0207 446.452 30.0207 444.604C30.0207 442.756 28.5248 441.258 26.6795 441.258C24.8343 441.258 23.3384 442.756 23.3384 444.604C23.3384 446.452 24.8343 447.95 26.6795 447.95Z" fill="#9871F5"/>
<path d="M50.0013 447.95C51.8466 447.95 53.3424 446.452 53.3424 444.604C53.3424 442.756 51.8466 441.258 50.0013 441.258C48.156 441.258 46.6602 442.756 46.6602 444.604C46.6602 446.452 48.156 447.95 50.0013 447.95Z" fill="#9871F5"/>
<path d="M73.3402 447.95C75.1854 447.95 76.6813 446.452 76.6813 444.604C76.6813 442.756 75.1854 441.258 73.3402 441.258C71.4949 441.258 69.999 442.756 69.999 444.604C69.999 446.452 71.4949 447.95 73.3402 447.95Z" fill="#9871F5"/>
<path d="M96.6605 447.95C98.5057 447.95 100.002 446.452 100.002 444.604C100.002 442.756 98.5057 441.258 96.6605 441.258C94.8152 441.258 93.3193 442.756 93.3193 444.604C93.3193 446.452 94.8152 447.95 96.6605 447.95Z" fill="#9871F5"/>
<path d="M119.999 447.95C121.845 447.95 123.34 446.452 123.34 444.604C123.34 442.756 121.845 441.258 119.999 441.258C118.154 441.258 116.658 442.756 116.658 444.604C116.658 446.452 118.154 447.95 119.999 447.95Z" fill="#9871F5"/>
<path d="M773.172 144.799C775.018 144.799 776.513 143.301 776.513 141.453C776.513 139.606 775.018 138.108 773.172 138.108C771.327 138.108 769.831 139.606 769.831 141.453C769.831 143.301 771.327 144.799 773.172 144.799Z" fill="#9871F5"/>
<path d="M796.493 144.799C798.338 144.799 799.834 143.301 799.834 141.453C799.834 139.606 798.338 138.108 796.493 138.108C794.648 138.108 793.152 139.606 793.152 141.453C793.152 143.301 794.648 144.799 796.493 144.799Z" fill="#9871F5"/>
<path d="M819.831 144.799C821.677 144.799 823.172 143.301 823.172 141.453C823.172 139.606 821.677 138.108 819.831 138.108C817.986 138.108 816.49 139.606 816.49 141.453C816.49 143.301 817.986 144.799 819.831 144.799Z" fill="#9871F5"/>
<path d="M773.172 168.17C775.017 168.17 776.513 166.672 776.513 164.824C776.513 162.976 775.017 161.478 773.172 161.478C771.326 161.478 769.831 162.976 769.831 164.824C769.831 166.672 771.326 168.17 773.172 168.17Z" fill="#9871F5"/>
<path d="M796.493 168.17C798.338 168.17 799.834 166.672 799.834 164.824C799.834 162.976 798.338 161.479 796.493 161.479C794.648 161.479 793.152 162.976 793.152 164.824C793.152 166.672 794.648 168.17 796.493 168.17Z" fill="#9871F5"/>
<path d="M819.831 168.17C821.677 168.17 823.172 166.672 823.172 164.824C823.172 162.976 821.677 161.479 819.831 161.479C817.986 161.479 816.49 162.976 816.49 164.824C816.49 166.672 817.986 168.17 819.831 168.17Z" fill="#9871F5"/>
<path d="M260.9 22.6149C262.746 22.6149 264.241 21.117 264.241 19.2692C264.241 17.4214 262.746 15.9235 260.9 15.9235C259.055 15.9235 257.559 17.4214 257.559 19.2692C257.559 21.117 259.055 22.6149 260.9 22.6149Z" fill="#9871F5"/>
<path d="M284.221 22.6149C286.066 22.6149 287.562 21.117 287.562 19.2692C287.562 17.4214 286.066 15.9235 284.221 15.9235C282.375 15.9235 280.879 17.4214 280.879 19.2692C280.879 21.117 282.375 22.6149 284.221 22.6149Z" fill="#9871F5"/>
<path d="M307.559 22.6149C309.404 22.6149 310.9 21.117 310.9 19.2692C310.9 17.4214 309.404 15.9235 307.559 15.9235C305.714 15.9235 304.218 17.4214 304.218 19.2692C304.218 21.117 305.714 22.6149 307.559 22.6149Z" fill="#9871F5"/>
<path d="M260.9 45.9855C262.745 45.9855 264.241 44.4876 264.241 42.6398C264.241 40.792 262.745 39.2941 260.9 39.2941C259.055 39.2941 257.559 40.792 257.559 42.6398C257.559 44.4876 259.055 45.9855 260.9 45.9855Z" fill="#9871F5"/>
<path d="M284.221 45.9855C286.066 45.9855 287.562 44.4876 287.562 42.6398C287.562 40.792 286.066 39.2941 284.221 39.2941C282.375 39.2941 280.879 40.792 280.879 42.6398C280.879 44.4876 282.375 45.9855 284.221 45.9855Z" fill="#9871F5"/>
<path d="M307.56 45.9855C309.405 45.9855 310.901 44.4876 310.901 42.6398C310.901 40.792 309.405 39.2941 307.56 39.2941C305.715 39.2941 304.219 40.792 304.219 42.6398C304.219 44.4876 305.715 45.9855 307.56 45.9855Z" fill="#9871F5"/>
<path d="M1115.85 377.873C1117.7 377.873 1119.2 376.375 1119.2 374.527C1119.2 372.68 1117.7 371.182 1115.85 371.182C1114.01 371.182 1112.51 372.68 1112.51 374.527C1112.51 376.375 1114.01 377.873 1115.85 377.873Z" fill="#9871F5"/>
<path d="M1115.85 401.244C1117.7 401.244 1119.2 399.746 1119.2 397.898C1119.2 396.05 1117.7 394.552 1115.85 394.552C1114.01 394.552 1112.51 396.05 1112.51 397.898C1112.51 399.746 1114.01 401.244 1115.85 401.244Z" fill="#9871F5"/>
<path d="M1115.85 424.596C1117.7 424.596 1119.2 423.099 1119.2 421.251C1119.2 419.403 1117.7 417.905 1115.85 417.905C1114.01 417.905 1112.51 419.403 1112.51 421.251C1112.51 423.099 1114.01 424.596 1115.85 424.596Z" fill="#9871F5"/>
<path d="M1115.85 447.967C1117.7 447.967 1119.2 446.469 1119.2 444.621C1119.2 442.774 1117.7 441.276 1115.85 441.276C1114.01 441.276 1112.51 442.774 1112.51 444.621C1112.51 446.469 1114.01 447.967 1115.85 447.967Z" fill="#9871F5"/>
<path d="M1115.85 471.32C1117.7 471.32 1119.2 469.822 1119.2 467.974C1119.2 466.127 1117.7 464.629 1115.85 464.629C1114.01 464.629 1112.51 466.127 1112.51 467.974C1112.51 469.822 1114.01 471.32 1115.85 471.32Z" fill="#9871F5"/>
<path d="M1115.85 494.691C1117.7 494.691 1119.2 493.193 1119.2 491.345C1119.2 489.497 1117.7 487.999 1115.85 487.999C1114.01 487.999 1112.51 489.497 1112.51 491.345C1112.51 493.193 1114.01 494.691 1115.85 494.691Z" fill="#9871F5"/>
<path d="M1115.85 518.043C1117.7 518.043 1119.2 516.545 1119.2 514.698C1119.2 512.85 1117.7 511.352 1115.85 511.352C1114.01 511.352 1112.51 512.85 1112.51 514.698C1112.51 516.545 1114.01 518.043 1115.85 518.043Z" fill="#9871F5"/>
<path d="M1092.52 377.873C1094.36 377.873 1095.86 376.375 1095.86 374.527C1095.86 372.68 1094.36 371.182 1092.52 371.182C1090.67 371.182 1089.17 372.68 1089.17 374.527C1089.17 376.375 1090.67 377.873 1092.52 377.873Z" fill="#9871F5"/>
<path d="M1092.52 401.244C1094.36 401.244 1095.86 399.746 1095.86 397.898C1095.86 396.05 1094.36 394.552 1092.52 394.552C1090.67 394.552 1089.17 396.05 1089.17 397.898C1089.17 399.746 1090.67 401.244 1092.52 401.244Z" fill="#9871F5"/>
<path d="M1092.52 424.596C1094.36 424.596 1095.86 423.099 1095.86 421.251C1095.86 419.403 1094.36 417.905 1092.52 417.905C1090.67 417.905 1089.17 419.403 1089.17 421.251C1089.17 423.099 1090.67 424.596 1092.52 424.596Z" fill="#9871F5"/>
<path d="M1092.52 447.967C1094.36 447.967 1095.86 446.469 1095.86 444.621C1095.86 442.774 1094.36 441.276 1092.52 441.276C1090.67 441.276 1089.17 442.774 1089.17 444.621C1089.17 446.469 1090.67 447.967 1092.52 447.967Z" fill="#9871F5"/>
<path d="M1092.52 471.32C1094.36 471.32 1095.86 469.822 1095.86 467.974C1095.86 466.127 1094.36 464.629 1092.52 464.629C1090.67 464.629 1089.17 466.127 1089.17 467.974C1089.17 469.822 1090.67 471.32 1092.52 471.32Z" fill="#9871F5"/>
<path d="M1092.52 494.691C1094.36 494.691 1095.86 493.193 1095.86 491.345C1095.86 489.497 1094.36 487.999 1092.52 487.999C1090.67 487.999 1089.17 489.497 1089.17 491.345C1089.17 493.193 1090.67 494.691 1092.52 494.691Z" fill="#9871F5"/>
<path d="M1092.52 518.043C1094.36 518.043 1095.86 516.545 1095.86 514.698C1095.86 512.85 1094.36 511.352 1092.52 511.352C1090.67 511.352 1089.17 512.85 1089.17 514.698C1089.17 516.545 1090.67 518.043 1092.52 518.043Z" fill="#9871F5"/>
<path d="M1069.19 377.873C1071.04 377.873 1072.54 376.375 1072.54 374.527C1072.54 372.68 1071.04 371.182 1069.19 371.182C1067.35 371.182 1065.85 372.68 1065.85 374.527C1065.85 376.375 1067.35 377.873 1069.19 377.873Z" fill="#9871F5"/>
<path d="M1069.19 401.244C1071.04 401.244 1072.54 399.746 1072.54 397.898C1072.54 396.05 1071.04 394.552 1069.19 394.552C1067.35 394.552 1065.85 396.05 1065.85 397.898C1065.85 399.746 1067.35 401.244 1069.19 401.244Z" fill="#9871F5"/>
<path d="M1069.19 424.596C1071.04 424.596 1072.54 423.099 1072.54 421.251C1072.54 419.403 1071.04 417.905 1069.19 417.905C1067.35 417.905 1065.85 419.403 1065.85 421.251C1065.85 423.099 1067.35 424.596 1069.19 424.596Z" fill="#9871F5"/>
<path d="M1069.19 447.967C1071.04 447.967 1072.54 446.469 1072.54 444.621C1072.54 442.774 1071.04 441.276 1069.19 441.276C1067.35 441.276 1065.85 442.774 1065.85 444.621C1065.85 446.469 1067.35 447.967 1069.19 447.967Z" fill="#9871F5"/>
<path d="M1069.19 471.32C1071.04 471.32 1072.54 469.822 1072.54 467.974C1072.54 466.127 1071.04 464.629 1069.19 464.629C1067.35 464.629 1065.85 466.127 1065.85 467.974C1065.85 469.822 1067.35 471.32 1069.19 471.32Z" fill="#9871F5"/>
<path d="M1069.19 494.691C1071.04 494.691 1072.54 493.193 1072.54 491.345C1072.54 489.497 1071.04 487.999 1069.19 487.999C1067.35 487.999 1065.85 489.497 1065.85 491.345C1065.85 493.193 1067.35 494.691 1069.19 494.691Z" fill="#9871F5"/>
<path d="M1069.19 518.043C1071.04 518.043 1072.54 516.545 1072.54 514.698C1072.54 512.85 1071.04 511.352 1069.19 511.352C1067.35 511.352 1065.85 512.85 1065.85 514.698C1065.85 516.545 1067.35 518.043 1069.19 518.043Z" fill="#9871F5"/>
<path d="M1045.86 377.873C1047.7 377.873 1049.2 376.375 1049.2 374.527C1049.2 372.68 1047.7 371.182 1045.86 371.182C1044.01 371.182 1042.52 372.68 1042.52 374.527C1042.52 376.375 1044.01 377.873 1045.86 377.873Z" fill="#9871F5"/>
<path d="M1045.86 401.244C1047.7 401.244 1049.2 399.746 1049.2 397.898C1049.2 396.05 1047.7 394.552 1045.86 394.552C1044.01 394.552 1042.51 396.05 1042.51 397.898C1042.51 399.746 1044.01 401.244 1045.86 401.244Z" fill="#9871F5"/>
<path d="M1045.86 424.597C1047.7 424.597 1049.2 423.099 1049.2 421.251C1049.2 419.403 1047.7 417.905 1045.86 417.905C1044.01 417.905 1042.51 419.403 1042.51 421.251C1042.51 423.099 1044.01 424.597 1045.86 424.597Z" fill="#9871F5"/>
<path d="M1045.86 447.967C1047.7 447.967 1049.2 446.469 1049.2 444.621C1049.2 442.774 1047.7 441.276 1045.86 441.276C1044.01 441.276 1042.51 442.774 1042.51 444.621C1042.51 446.469 1044.01 447.967 1045.86 447.967Z" fill="#9871F5"/>
<path d="M1045.86 471.32C1047.7 471.32 1049.2 469.822 1049.2 467.974C1049.2 466.127 1047.7 464.629 1045.86 464.629C1044.01 464.629 1042.51 466.127 1042.51 467.974C1042.51 469.822 1044.01 471.32 1045.86 471.32Z" fill="#9871F5"/>
<path d="M1045.86 494.691C1047.7 494.691 1049.2 493.193 1049.2 491.345C1049.2 489.497 1047.7 487.999 1045.86 487.999C1044.01 487.999 1042.51 489.497 1042.51 491.345C1042.51 493.193 1044.01 494.691 1045.86 494.691Z" fill="#9871F5"/>
<path d="M1045.86 518.043C1047.7 518.043 1049.2 516.545 1049.2 514.698C1049.2 512.85 1047.7 511.352 1045.86 511.352C1044.01 511.352 1042.51 512.85 1042.51 514.698C1042.51 516.545 1044.01 518.043 1045.86 518.043Z" fill="#9871F5"/>
</svg>
